<svg width="400" height="520" xmlns="http://www.w3.org/2000/svg">
  <defs>
    <linearGradient id="card-gradient" x1="0%" y1="0%" x2="0%" y2="100%">
      <stop offset="0%" stop-color="#fafafa" />
      <stop offset="100%" stop-color="#f0f0f0" />
    </linearGradient>
    <linearGradient id="deny-gradient" x1="0%" y1="0%" x2="0%" y2="100%">
      <stop offset="0%" stop-color="#fee2e2" />
      <stop offset="100%" stop-color="#fecaca" />
    </linearGradient>
    <linearGradient id="allow-gradient" x1="0%" y1="0%" x2="0%" y2="100%">
      <stop offset="0%" stop-color="#dcfce7" />
      <stop offset="100%" stop-color="#bbf7d0" />
    </linearGradient>
    <filter id="drop-shadow" x="-20%" y="-20%" width="140%" height="140%">
      <feGaussianBlur in="SourceAlpha" stdDeviation="2" />
      <feOffset dx="0" dy="1" result="offsetblur" />
      <feComponentTransfer>
        <feFuncA type="linear" slope="0.1" />
      </feComponentTransfer>
      <feMerge> 
        <feMergeNode />
        <feMergeNode in="SourceGraphic" /> 
      </feMerge>
    </filter>
    <marker id="arrowhead" markerWidth="10" markerHeight="7" refX="9" refY="3.5" orient="auto">
      <polygon points="0 0, 10 3.5, 0 7" fill="#6b7280" />
    </marker>
  </defs>
  
  <!-- Background -->
  <rect width="400" height="520" rx="12" ry="12" fill="#fbfbfb" />
  
  <!-- Title and description -->
  <text x="200" y="35" text-anchor="middle" font-size="18" font-weight="bold" fill="#374151">Policy Evaluation Flow</text>
  <text x="200" y="60" text-anchor="middle" font-size="12" fill="#6b7280">How credential requests are evaluated through policy layers</text>
  
  <!-- Request Icon and Section -->
  <g transform="translate(30, 90)">
    <rect width="340" height="70" rx="8" fill="url(#card-gradient)" stroke="#e5e7eb" stroke-width="1.5" filter="url(#drop-shadow)" />
    <g transform="translate(20, 20)">
      <!-- Request icon -->
      <circle cx="15" cy="15" r="15" fill="#ede9fe" />
      <path d="M8,15 L22,15 M15,8 L15,22" stroke="#8b5cf6" stroke-width="2" stroke-linecap="round" />
      <!-- Request text -->
      <text x="45" y="20" font-size="14" font-weight="600" fill="#4b5563">Incoming Request</text>
      <text x="45" y="40" font-size="12" fill="#6b7280">Application makes a request to access a credential</text>
    </g>
  </g>
  
  <!-- Arrow -->
  <path d="M200,160 L200,190" stroke="#9ca3af" stroke-width="2" stroke-dasharray="none" marker-end="url(#arrowhead)" />
  
  <!-- Global Policies Section -->
  <g transform="translate(30, 190)">
    <rect width="340" height="70" rx="8" fill="url(#card-gradient)" stroke="#e5e7eb" stroke-width="1.5" filter="url(#drop-shadow)" />
    <g transform="translate(20, 20)">
      <!-- Global icon -->
      <circle cx="15" cy="15" r="15" fill="#dbeafe" />
      <path d="M15,10 a5,5 0 1,1 0,10 a5,5 0 1,1 0,-10 M8,15 a7,7 0 1,0 14,0 a7,7 0 1,0 -14,0" stroke="#3b82f6" stroke-width="1.5" fill="none" />
      <!-- Global text -->
      <text x="45" y="20" font-size="14" font-weight="600" fill="#4b5563">Global Policies</text>
      <text x="45" y="40" font-size="12" fill="#6b7280">Applied to all requests regardless of target</text>
    </g>
  </g>
  
  <!-- Check or Deny Path -->
  <path d="M170,260 L130,290" stroke="#9ca3af" stroke-width="2" stroke-dasharray="2,2" marker-end="url(#arrowhead)" />
  <g transform="translate(70, 290)">
    <rect width="120" height="30" rx="6" fill="url(#deny-gradient)" stroke="#fca5a5" stroke-width="1.5" filter="url(#drop-shadow)" />
    <text x="60" y="20" text-anchor="middle" font-size="12" font-weight="500" fill="#b91c1c">Deny Access</text>
  </g>
  
  <!-- Continue Path -->
  <path d="M230,260 L270,290" stroke="#9ca3af" stroke-width="2" marker-end="url(#arrowhead)" />
  
  <!-- Plugin Policies Section -->
  <g transform="translate(30, 290)">
    <rect width="340" height="70" rx="8" fill="url(#card-gradient)" stroke="#e5e7eb" stroke-width="1.5" filter="url(#drop-shadow)" />
    <g transform="translate(140, 20)">
      <!-- Plugin icon -->
      <circle cx="15" cy="15" r="15" fill="#fef3c7" />
      <path d="M10,10 h10 v10 h-10z M10,15 h10 M15,10 v10" stroke="#d97706" stroke-width="1.5" fill="none" />
      <!-- Plugin text -->
      <text x="45" y="20" font-size="14" font-weight="600" fill="#4b5563">Plugin Policies</text>
      <text x="45" y="40" font-size="12" fill="#6b7280">Applied to specific plugin requests</text>
    </g>
  </g>
  
  <!-- Check or Deny Path for Plugin -->
  <path d="M170,360 L130,390" stroke="#9ca3af" stroke-width="2" stroke-dasharray="2,2" marker-end="url(#arrowhead)" />
  <g transform="translate(70, 390)">
    <rect width="120" height="30" rx="6" fill="url(#deny-gradient)" stroke="#fca5a5" stroke-width="1.5" filter="url(#drop-shadow)" />
    <text x="60" y="20" text-anchor="middle" font-size="12" font-weight="500" fill="#b91c1c">Deny Access</text>
  </g>
  
  <!-- Continue Path for Plugin -->
  <path d="M230,360 L270,390" stroke="#9ca3af" stroke-width="2" marker-end="url(#arrowhead)" />
  
  <!-- Credential Policies Section -->
  <g transform="translate(30, 390)">
    <rect width="340" height="70" rx="8" fill="url(#card-gradient)" stroke="#e5e7eb" stroke-width="1.5" filter="url(#drop-shadow)" />
    <g transform="translate(140, 20)">
      <!-- Credential icon -->
      <circle cx="15" cy="15" r="15" fill="#ecfdf5" />
      <path d="M10,15 a5,5 0 1,1 10,0 a5,5 0 1,1 -10,0 M15,10 v-2 M15,22 v-2 M10,15 h-2 M22,15 h-2" stroke="#059669" stroke-width="1.5" fill="none" />
      <!-- Credential text -->
      <text x="45" y="20" font-size="14" font-weight="600" fill="#4b5563">Credential Policies</text>
      <text x="45" y="40" font-size="12" fill="#6b7280">Applied to specific credential access</text>
    </g>
  </g>
  
  <!-- Final Decision Paths -->
  <path d="M200,460 L150,490" stroke="#9ca3af" stroke-width="2" stroke-dasharray="2,2" marker-end="url(#arrowhead)" />
  <path d="M200,460 L250,490" stroke="#9ca3af" stroke-width="2" marker-end="url(#arrowhead)" />
  
  <!-- Final Decision Boxes -->
  <g transform="translate(90, 490)">
    <rect width="120" height="40" rx="8" fill="url(#deny-gradient)" stroke="#fca5a5" stroke-width="1.5" filter="url(#drop-shadow)" />
    <g transform="translate(15, 20)">
      <!-- Deny icon -->
      <circle cx="10" cy="0" r="10" fill="#fff" stroke="#ef4444" stroke-width="1.5" />
      <path d="M7,-3 L13,3 M7,3 L13,-3" stroke="#ef4444" stroke-width="1.5" stroke-linecap="round" />
      <!-- Deny text -->
      <text x="30" y="4" font-size="14" font-weight="600" fill="#b91c1c">Deny Access</text>
    </g>
  </g>
  
  <g transform="translate(190, 490)">
    <rect width="120" height="40" rx="8" fill="url(#allow-gradient)" stroke="#86efac" stroke-width="1.5" filter="url(#drop-shadow)" />
    <g transform="translate(15, 20)">
      <!-- Allow icon -->
      <circle cx="10" cy="0" r="10" fill="#fff" stroke="#10b981" stroke-width="1.5" />
      <path d="M6,0 L9,3 L14,-3" stroke="#10b981" stroke-width="1.5" stroke-linecap="round" stroke-linejoin="round" />
      <!-- Allow text -->
      <text x="30" y="4" font-size="14" font-weight="600" fill="#047857">Allow Access</text>
    </g>
  </g>
  
  <!-- Fast Deny Path -->
  <path d="M90,160 Q40,280 80,490" stroke="#ef4444" stroke-width="2" stroke-dasharray="4,2" marker-end="url(#arrowhead)" />
  <text x="45" y="280" transform="rotate(-60, 45, 280)" font-size="10" fill="#ef4444" font-weight="500">Any policy denies → immediate rejection</text>
</svg> 